# WaveFront *.obj file (generated by Autodesk ATF)

mtllib meteorite.mtl

g Solid1

v -2.250177 0.000000 -0.731127
v -1.820432 0.000000 0.591494
v -1.699445 -0.187500 0.517100
v -1.699445 0.187500 0.517100
v -1.605559 0.000000 1.252805
v -1.578458 -0.375000 0.442707
v -1.578458 0.375000 0.442707
v -1.534380 -0.187500 1.122018
v -1.534380 0.187500 1.122018
v -1.463201 -0.375000 0.991231
v -1.463201 0.375000 0.991231
v -1.457470 -0.562500 0.368313
v -1.457470 0.562500 0.368313
v -1.392021 -0.562500 0.860444
v -1.392021 0.562500 0.860444
v -1.390686 0.000000 1.914115
v -1.367766 -0.750000 -0.577556
v -1.367766 0.750000 -0.577556
v -1.347944 -0.375000 1.539755
v -1.347944 0.375000 1.539755
v -1.336483 -0.750000 0.293919
v -1.336483 0.750000 0.293919
v -1.320842 -0.750000 0.729657
v -1.320842 0.750000 0.729657
v -1.305201 -0.750000 1.165394
v -1.305201 0.750000 1.165394
v -1.262459 -1.125000 0.791034
v -1.262459 1.125000 0.791034
v -1.249663 -0.937500 0.598870
v -1.249663 0.937500 0.598870
v -1.219716 -1.500000 0.416673
v -1.219716 1.500000 0.416673
v -1.215496 -0.937500 0.219526
v -1.215496 0.937500 0.219526
v -1.178484 -1.125000 0.468083
v -1.178484 1.125000 0.468083
v -1.125089 0.000000 -1.548552
v -1.094509 -1.125000 0.145132
v -1.094509 1.125000 0.145132
v -0.926560 -1.125000 -0.500770
v -0.926560 1.125000 -0.500770
v -0.852535 -1.500000 -0.003656
v -0.852535 1.500000 -0.003656
v -0.621631 -0.750000 -1.196432
v -0.621631 0.750000 -1.196432
v -0.485354 -1.500000 -0.423984
v -0.485354 1.500000 -0.423984
v -0.062252 -0.750000 1.273218
v -0.062252 0.750000 1.273218
v 0.000000 0.000000 -2.365976
v 0.124504 -0.750000 -1.815309
v 0.124504 0.750000 -1.815309
v 0.186756 -1.125000 -1.539976
v 0.186756 1.125000 -1.539976
v 0.249009 -1.500000 -1.264642
v 0.249009 1.500000 -1.264642
v 0.429433 -1.500000 -0.736489
v 0.429433 1.500000 -0.736489
v 0.603347 -1.125000 -0.939505
v 0.603347 1.125000 -0.939505
v 0.609858 -1.500000 -0.208337
v 0.609858 1.500000 -0.208337
v 0.690304 -0.937500 -1.041013
v 0.690304 0.937500 -1.041013
v 0.777261 -0.750000 -1.142521
v 0.777261 0.750000 -1.142521
v 0.790283 -1.500000 0.319816
v 0.790283 1.500000 0.319816
v 0.864218 -0.562500 -1.244028
v 0.864218 0.562500 -1.244028
v 0.951175 -0.375000 -1.345536
v 0.951175 0.375000 -1.345536
v 0.970708 -1.500000 0.847969
v 0.970708 1.500000 0.847969
v 1.038132 -0.187500 -1.447044
v 1.038132 0.187500 -1.447044
v 1.047820 -1.125000 0.387736
v 1.047820 1.125000 0.387736
v 1.061761 -1.125000 0.751120
v 1.061761 1.125000 0.751120
v 1.075702 -1.125000 1.114505
v 1.075702 1.125000 1.114505
v 1.125089 0.000000 -1.548552
v 1.152394 -0.937500 0.834734
v 1.152394 0.937500 0.834734
v 1.176589 -0.937500 0.421695
v 1.176589 0.937500 0.421695
v 1.180697 -0.750000 1.381042
v 1.180697 0.750000 1.381042
v 1.243027 -0.750000 0.918348
v 1.243027 0.750000 0.918348
v 1.305357 -0.750000 0.455655
v 1.305357 0.750000 0.455655
v 1.333660 -0.562500 1.001963
v 1.333660 0.562500 1.001963
v 1.390686 0.000000 1.914115
v 1.424293 -0.375000 1.085577
v 1.424293 0.375000 1.085577
v 1.434126 -0.562500 0.489615
v 1.434126 0.562500 0.489615
v 1.562895 -0.375000 0.523575
v 1.562895 0.375000 0.523575
v 1.820432 0.000000 0.591494
v 2.250177 0.000000 -0.731127
vt 3.212191 0.632482 0.000000
vt 1.870683 1.090761 0.000000
vt 0.529175 1.549040 0.000000
vt -0.812333 2.007319 0.000000
vt -2.153841 2.465598 0.000000
vt -1.058350 -3.098080 0.000000
vt 0.009285 -2.165439 0.000000
vt 1.076920 -1.232799 0.000000
vt 0.000000 0.000000 0.000000
vt 2.381019 0.000000 0.000000
vt 4.762039 0.000000 0.000000
vt 4.762039 4.678968 0.000000
vt 2.381019 4.678968 0.000000
vt 0.000000 4.678968 0.000000
vt 0.000000 3.509226 0.000000
vt 0.000000 2.339484 0.000000
vt 2.381019 1.169742 0.000000
vt 2.381019 2.924355 0.000000
vt 2.381019 0.584871 0.000000
vt 2.381019 3.509226 0.000000
vt 2.381019 2.339484 0.000000
vt 2.381019 1.754613 0.000000
vt 0.000000 0.000000 0.000000
vt 2.371714 0.000000 0.000000
vt 4.743428 0.000000 0.000000
vt 4.743428 2.336598 0.000000
vt 4.743428 3.504897 0.000000
vt 4.743428 4.673196 0.000000
vt 2.371714 4.673196 0.000000
vt 0.000000 4.673196 0.000000
vt 2.371714 1.752449 0.000000
vt 3.557571 1.168299 0.000000
vt 2.371714 1.168299 0.000000
vt 3.557571 2.920748 0.000000
vt 2.371714 2.920748 0.000000
vt 2.371714 2.336598 0.000000
vt 3.557571 2.336598 0.000000
vt 2.371714 3.504897 0.000000
vt 3.557571 3.504897 0.000000
vt 3.557571 1.752449 0.000000
vt 0.000000 0.000000 0.000000
vt 6.337895 0.000000 0.000000
vt 6.337895 1.255390 0.000000
vt 6.337895 2.510780 0.000000
vt 6.337895 3.766170 0.000000
vt 6.337895 5.021560 0.000000
vt 0.000000 5.021560 0.000000
vt 0.000000 3.766170 0.000000
vt 0.000000 2.510780 0.000000
vt 3.168947 2.510780 0.000000
vt 0.000000 0.000000 0.000000
vt 1.107486 0.000000 0.000000
vt 2.214972 0.000000 0.000000
vt 4.429944 0.000000 0.000000
vt 4.429944 2.389837 0.000000
vt 4.429944 3.584756 0.000000
vt 4.429944 4.779675 0.000000
vt 2.214972 4.779675 0.000000
vt 0.000000 4.779675 0.000000
vt 0.000000 3.584756 0.000000
vt 0.000000 2.389837 0.000000
vt 0.000000 1.194919 0.000000
vt 2.214972 1.194919 0.000000
vt 2.214972 0.597459 0.000000
vt 1.107486 0.597459 0.000000
vt 2.214972 2.987297 0.000000
vt 1.107486 2.987297 0.000000
vt 1.107486 2.389837 0.000000
vt 2.214972 2.389837 0.000000
vt 1.107486 3.584756 0.000000
vt 2.214972 3.584756 0.000000
vt 1.107486 1.792378 0.000000
vt 2.214972 1.792378 0.000000
vt 1.107486 1.194919 0.000000
vt 0.000000 0.000000 0.000000
vt 2.462262 0.000000 0.000000
vt 4.924524 0.000000 0.000000
vt 4.924524 2.462566 0.000000
vt 4.924524 3.693849 0.000000
vt 4.924524 4.925132 0.000000
vt 0.000000 4.925132 0.000000
vt 0.000000 3.693849 0.000000
vt 0.000000 2.462566 0.000000
vt 2.462262 2.462566 0.000000
vt -0.529175 1.549040 0.000000
vt -1.870683 1.090761 0.000000
vt -3.212191 0.632482 0.000000
vt -1.076920 -1.232799 0.000000
vt -0.009285 -2.165439 0.000000
vt 1.058350 -3.098080 0.000000
vt 2.153841 2.465598 0.000000
vt 0.812333 2.007319 0.000000
vt -4.762039 0.000000 0.000000
vt -2.381019 0.000000 0.000000
vt -0.000000 0.000000 0.000000
vt -0.000000 2.339484 0.000000
vt -0.000000 3.509226 0.000000
vt -0.000000 4.678968 0.000000
vt -2.381019 4.678968 0.000000
vt -4.762039 4.678968 0.000000
vt -2.381019 1.169742 0.000000
vt -2.381019 2.924355 0.000000
vt -2.381019 0.584871 0.000000
vt -2.381019 2.339484 0.000000
vt -2.381019 3.509226 0.000000
vt -2.381019 1.754613 0.000000
vt -4.743428 0.000000 0.000000
vt -2.371714 0.000000 0.000000
vt -0.000000 0.000000 0.000000
vt -0.000000 4.673196 0.000000
vt -2.371714 4.673196 0.000000
vt -4.743428 4.673196 0.000000
vt -4.743428 3.504897 0.000000
vt -4.743428 2.336598 0.000000
vt -3.557571 1.168299 0.000000
vt -2.371714 2.920748 0.000000
vt -2.371714 1.168299 0.000000
vt -3.557571 3.504897 0.000000
vt -2.371714 3.504897 0.000000
vt -3.557571 2.920748 0.000000
vt -2.371714 2.336598 0.000000
vt -3.557571 1.752449 0.000000
vt -2.371714 1.752449 0.000000
vt -3.557571 2.336598 0.000000
vt -6.337895 0.000000 0.000000
vt -0.000000 0.000000 0.000000
vt -0.000000 2.510780 0.000000
vt -0.000000 3.766170 0.000000
vt -0.000000 5.021560 0.000000
vt -6.337895 5.021560 0.000000
vt -6.337895 3.766170 0.000000
vt -6.337895 2.510780 0.000000
vt -6.337895 1.255390 0.000000
vt -3.168947 2.510780 0.000000
vt -4.429944 0.000000 0.000000
vt -2.214972 0.000000 0.000000
vt -1.107486 0.000000 0.000000
vt -0.000000 0.000000 0.000000
vt -0.000000 1.194919 0.000000
vt -0.000000 2.389837 0.000000
vt -0.000000 3.584756 0.000000
vt -0.000000 4.779675 0.000000
vt -2.214972 4.779675 0.000000
vt -4.429944 4.779675 0.000000
vt -4.429944 3.584756 0.000000
vt -4.429944 2.389837 0.000000
vt -2.214972 1.194919 0.000000
vt -1.107486 0.597459 0.000000
vt -2.214972 0.597459 0.000000
vt -1.107486 1.792378 0.000000
vt -2.214972 1.792378 0.000000
vt -1.107486 1.194919 0.000000
vt -1.107486 2.987297 0.000000
vt -2.214972 2.987297 0.000000
vt -2.214972 2.389837 0.000000
vt -1.107486 2.389837 0.000000
vt -2.214972 3.584756 0.000000
vt -1.107486 3.584756 0.000000
vt -4.924524 0.000000 0.000000
vt -2.462262 0.000000 0.000000
vt -0.000000 0.000000 0.000000
vt -0.000000 2.462566 0.000000
vt -0.000000 3.693849 0.000000
vt -0.000000 4.925132 0.000000
vt -4.924524 4.925132 0.000000
vt -4.924524 3.693849 0.000000
vt -4.924524 2.462566 0.000000
vt -2.462262 2.462566 0.000000
vn 0.000000 -2.540000 0.000000
vn 0.000000 -2.540000 0.000000
vn 0.000000 -2.540000 0.000000
vn 0.000000 -2.540000 0.000000
vn 0.000000 -2.540000 0.000000
vn 0.000000 -2.540000 0.000000
vn 0.000000 -2.540000 0.000000
vn 0.000000 -2.540000 0.000000
vn 1.337265 -1.129408 -1.840587
vn 1.217014 -1.471258 -1.675075
vn 1.096137 -1.724500 -1.508703
vn 1.579158 -1.914899 -0.539464
vn 2.048435 -1.328844 -0.699776
vn 2.395913 -0.203211 -0.818479
vn 2.008529 -0.689686 -1.393465
vn 1.697169 -0.927258 -1.646636
vn 1.328664 -1.474336 -1.585114
vn 1.590957 -1.461205 -1.336166
vn 1.268318 -1.473241 -1.634788
vn 1.718001 -1.442025 -1.191904
vn 1.486547 -1.470234 -1.442286
vn 1.400393 -1.473784 -1.522649
vn 1.766888 -1.732085 0.574097
vn 1.970524 -1.469252 0.640262
vn 2.172751 -1.110117 0.705970
vn 2.359019 -0.886363 0.317787
vn 2.460878 -0.621906 -0.094411
vn 2.402131 -0.089306 -0.820604
vn 2.068947 -1.292870 -0.706783
vn 1.579158 -1.914899 -0.539464
vn 2.033536 -1.468784 0.398754
vn 2.136876 -1.267924 0.526999
vn 2.010677 -1.470676 0.495875
vn 2.260106 -1.151518 0.132390
vn 2.081014 -1.451248 0.121899
vn 2.057573 -1.463273 0.277179
vn 2.216263 -1.204426 0.298556
vn 2.099515 -1.427287 -0.080547
vn 2.300667 -1.072726 -0.088264
vn 2.174608 -1.241309 0.426417
vn 0.000000 -1.471513 2.070326
vn 0.000000 -1.794518 1.797583
vn -0.073393 -1.797953 1.792645
vn -0.154880 -1.799998 1.785390
vn -0.245577 -1.800075 1.775112
vn -0.346720 -1.797404 1.760888
vn -0.412691 -1.374169 2.095936
vn -0.289750 -1.407508 2.094413
vn -0.181194 -1.433864 2.088732
vn -0.167741 -1.638435 1.933647
vn -2.229684 -0.977371 0.724468
vn -2.092731 -1.268746 0.679970
vn -1.945272 -1.505994 0.632057
vn -1.661262 -1.844031 0.539777
vn -1.650494 -1.929756 0.059246
vn -1.581335 -1.944713 -0.411184
vn -1.338648 -1.814430 -1.169386
vn -1.866284 -0.557396 -1.630305
vn -1.661232 1.259359 -1.451180
vn -2.434206 0.354421 -0.632950
vn -2.510385 -0.376091 0.090112
vn -2.369633 -0.767153 0.497912
vn -2.023883 -1.474669 0.425262
vn -1.982037 -1.493526 0.540842
vn -2.147220 -1.223826 0.585916
vn -2.162476 -1.318090 -0.194770
vn -2.412522 -0.764279 -0.217291
vn -2.353226 -0.952257 0.084471
vn -2.119437 -1.397783 0.076079
vn -2.414219 -0.478614 -0.627753
vn -2.176848 -1.180060 -0.566031
vn -2.280218 -1.077146 0.303249
vn -2.070499 -1.445272 0.275358
vn -2.209928 -1.162839 0.464354
vn -1.133511 -1.653089 -1.560144
vn -1.180416 -1.555172 -1.624703
vn -1.227933 -1.444758 -1.690105
vn -1.346468 -1.415414 -1.623339
vn -1.453175 -1.384279 -1.556808
vn -1.634469 -1.319656 -1.427802
vn -1.338648 -1.814430 -1.169386
vn -1.254985 -1.751850 -1.344484
vn -1.200084 -1.708218 -1.446855
vn -1.272472 -1.574442 -1.534127
vn 0.000000 2.540000 0.000000
vn 0.000000 2.540000 0.000000
vn 0.000000 2.540000 0.000000
vn 0.000000 2.540000 0.000000
vn 0.000000 2.540000 0.000000
vn 0.000000 2.540000 0.000000
vn 0.000000 2.540000 0.000000
vn 0.000000 2.540000 0.000000
vn 1.096137 1.724500 -1.508703
vn 1.217014 1.471258 -1.675075
vn 1.337265 1.129408 -1.840587
vn 1.697169 0.927258 -1.646636
vn 2.008529 0.689686 -1.393465
vn 2.395913 0.203211 -0.818479
vn 2.048435 1.328844 -0.699776
vn 1.579158 1.914899 -0.539464
vn 1.328664 1.474336 -1.585114
vn 1.590957 1.461205 -1.336166
vn 1.268318 1.473241 -1.634788
vn 1.486547 1.470234 -1.442286
vn 1.718001 1.442025 -1.191904
vn 1.400393 1.473784 -1.522649
vn 2.172751 1.110117 0.705970
vn 1.970524 1.469252 0.640262
vn 1.766888 1.732085 0.574097
vn 1.579158 1.914899 -0.539464
vn 2.068947 1.292870 -0.706783
vn 2.402131 0.089306 -0.820604
vn 2.460878 0.621906 -0.094411
vn 2.359019 0.886363 0.317787
vn 2.136876 1.267924 0.526999
vn 2.081014 1.451248 0.121899
vn 2.010677 1.470676 0.495875
vn 2.300667 1.072726 -0.088264
vn 2.099515 1.427287 -0.080547
vn 2.260106 1.151518 0.132390
vn 2.057573 1.463273 0.277179
vn 2.174608 1.241309 0.426417
vn 2.033536 1.468784 0.398754
vn 2.216263 1.204426 0.298556
vn 0.000000 1.794518 1.797583
vn 0.000000 1.471513 2.070326
vn -0.181194 1.433864 2.088732
vn -0.289750 1.407508 2.094413
vn -0.412691 1.374169 2.095936
vn -0.346720 1.797404 1.760888
vn -0.245577 1.800075 1.775112
vn -0.154880 1.799998 1.785390
vn -0.073393 1.797953 1.792645
vn -0.167741 1.638435 1.933647
vn -1.661262 1.844031 0.539777
vn -1.945272 1.505994 0.632057
vn -2.092731 1.268746 0.679970
vn -2.229684 0.977371 0.724468
vn -2.369633 0.767153 0.497912
vn -2.510385 0.376091 0.090112
vn -2.434206 -0.354421 -0.632950
vn -1.661232 -1.259359 -1.451180
vn -1.866284 0.557396 -1.630305
vn -1.338648 1.814430 -1.169386
vn -1.581335 1.944713 -0.411184
vn -1.650494 1.929756 0.059246
vn -2.023883 1.474669 0.425262
vn -2.147220 1.223826 0.585916
vn -1.982037 1.493526 0.540842
vn -2.280218 1.077146 0.303249
vn -2.070499 1.445272 0.275358
vn -2.209928 1.162839 0.464354
vn -2.412522 0.764279 -0.217291
vn -2.162476 1.318090 -0.194770
vn -2.119437 1.397783 0.076079
vn -2.353226 0.952257 0.084471
vn -2.176848 1.180060 -0.566031
vn -2.414219 0.478614 -0.627753
vn -1.227933 1.444758 -1.690105
vn -1.180416 1.555172 -1.624703
vn -1.133511 1.653089 -1.560144
vn -1.200084 1.708218 -1.446855
vn -1.254985 1.751850 -1.344484
vn -1.338648 1.814430 -1.169386
vn -1.634469 1.319656 -1.427802
vn -1.453175 1.384279 -1.556808
vn -1.346468 1.415414 -1.623339
vn -1.272472 1.574442 -1.534127
usemtl 191,191,191
f 55/1/1 57/2/2 46/8/8
f 46/8/8 57/2/2 61/3/3
f 46/8/8 61/3/3 42/7/7
f 42/7/7 61/3/3 67/4/4
f 42/7/7 67/4/4 31/6/6
f 31/6/6 67/4/4 73/5/5
f 83/10/10 75/19/19 50/9/9
f 50/9/9 75/19/19 71/17/17
f 50/9/9 71/17/17 51/16/16
f 51/16/16 71/17/17 69/22/22
f 51/16/16 69/22/22 65/21/21
f 65/21/21 69/22/22 104/11/11
f 65/21/21 104/11/11 61/12/12
f 83/10/10 104/11/11 75/19/19
f 75/19/19 104/11/11 71/17/17
f 57/13/13 59/20/20 61/12/12
f 61/12/12 59/20/20 63/18/18
f 61/12/12 63/18/18 65/21/21
f 65/21/21 63/18/18 51/16/16
f 57/13/13 55/14/14 59/20/20
f 59/20/20 55/14/14 53/15/15
f 59/20/20 53/15/15 63/18/18
f 63/18/18 53/15/15 51/16/16
f 71/17/17 104/11/11 69/22/22
f 103/24/24 101/33/33 104/23/23
f 104/23/23 101/33/33 99/31/31
f 104/23/23 99/31/31 92/36/36
f 92/36/36 99/31/31 94/40/40
f 92/36/36 94/40/40 90/37/37
f 90/37/37 94/40/40 88/26/26
f 90/37/37 88/26/26 84/34/34
f 84/34/34 88/26/26 81/27/27
f 84/34/34 81/27/27 79/39/39
f 79/39/39 81/27/27 73/28/28
f 79/39/39 73/28/28 67/29/29
f 101/33/33 103/24/24 97/32/32
f 97/32/32 103/24/24 96/25/25
f 97/32/32 96/25/25 88/26/26
f 79/39/39 67/29/29 77/38/38
f 77/38/38 67/29/29 61/30/30
f 77/38/38 61/30/30 86/35/35
f 86/35/35 61/30/30 92/36/36
f 86/35/35 92/36/36 90/37/37
f 61/30/30 104/23/23 92/36/36
f 88/26/26 94/40/40 97/32/32
f 97/32/32 94/40/40 99/31/31
f 97/32/32 99/31/31 101/33/33
f 77/38/38 86/35/35 84/34/34
f 84/34/34 86/35/35 90/37/37
f 79/39/39 77/38/38 84/34/34
f 88/49/49 96/41/41 48/50/50
f 48/50/50 96/41/41 16/42/42
f 48/50/50 16/42/42 19/43/43
f 19/43/43 25/44/44 48/50/50
f 48/50/50 25/44/44 27/45/45
f 48/50/50 27/45/45 31/46/46
f 31/46/46 73/47/47 48/50/50
f 48/50/50 73/47/47 81/48/48
f 48/50/50 81/48/48 88/49/49
f 19/62/62 16/51/51 8/65/65
f 8/65/65 16/51/51 5/52/52
f 8/65/65 5/52/52 2/53/53
f 8/65/65 2/53/53 3/64/64
f 3/64/64 2/53/53 1/54/54
f 3/64/64 1/54/54 6/63/63
f 6/63/63 1/54/54 17/55/55
f 6/63/63 17/55/55 12/73/73
f 12/73/73 17/55/55 21/69/69
f 12/73/73 21/69/69 23/68/68
f 23/68/68 21/69/69 29/67/67
f 23/68/68 29/67/67 25/61/61
f 25/61/61 29/67/67 27/60/60
f 27/60/60 29/67/67 35/70/70
f 27/60/60 35/70/70 31/59/59
f 31/59/59 35/70/70 42/58/58
f 42/58/58 35/70/70 38/71/71
f 42/58/58 38/71/71 40/56/56
f 40/56/56 38/71/71 33/66/66
f 40/56/56 33/66/66 17/55/55
f 17/55/55 33/66/66 21/69/69
f 40/56/56 46/57/57 42/58/58
f 23/68/68 25/61/61 14/72/72
f 14/72/72 25/61/61 19/62/62
f 14/72/72 19/62/62 10/74/74
f 10/74/74 19/62/62 8/65/65
f 10/74/74 8/65/65 3/64/64
f 35/70/70 29/67/67 33/66/66
f 33/66/66 29/67/67 21/69/69
f 38/71/71 35/70/70 33/66/66
f 12/73/73 23/68/68 14/72/72
f 6/63/63 12/73/73 14/72/72
f 14/72/72 10/74/74 6/63/63
f 6/63/63 10/74/74 3/64/64
f 1/75/75 37/76/76 17/83/83
f 17/83/83 37/76/76 44/84/84
f 17/83/83 44/84/84 40/82/82
f 40/82/82 44/84/84 46/81/81
f 46/81/81 44/84/84 53/79/79
f 46/81/81 53/79/79 55/80/80
f 37/76/76 50/77/77 44/84/84
f 44/84/84 50/77/77 51/78/78
f 44/84/84 51/78/78 53/79/79
f 58/86/86 47/88/88 62/85/85
f 62/85/85 47/88/88 43/89/89
f 62/85/85 43/89/89 68/92/92
f 68/92/92 43/89/89 32/90/90
f 68/92/92 32/90/90 74/91/91
f 58/86/86 56/87/87 47/88/88
f 83/94/94 76/103/103 104/93/93
f 104/93/93 76/103/103 72/101/101
f 104/93/93 72/101/101 70/106/106
f 70/106/106 72/101/101 52/96/96
f 70/106/106 52/96/96 66/104/104
f 66/104/104 52/96/96 64/102/102
f 66/104/104 64/102/102 62/100/100
f 62/100/100 64/102/102 60/105/105
f 62/100/100 60/105/105 58/99/99
f 58/99/99 60/105/105 54/97/97
f 58/99/99 54/97/97 56/98/98
f 83/94/94 50/95/95 76/103/103
f 76/103/103 50/95/95 72/101/101
f 50/95/95 52/96/96 72/101/101
f 52/96/96 54/97/97 64/102/102
f 64/102/102 54/97/97 60/105/105
f 62/100/100 104/93/93 66/104/104
f 66/104/104 104/93/93 70/106/106
f 89/114/114 96/107/107 98/115/115
f 98/115/115 96/107/107 103/108/108
f 98/115/115 103/108/108 102/117/117
f 102/117/117 103/108/108 104/109/109
f 102/117/117 104/109/109 100/123/123
f 100/123/123 104/109/109 93/121/121
f 100/123/123 93/121/121 91/124/124
f 91/124/124 93/121/121 85/120/120
f 91/124/124 85/120/120 89/114/114
f 89/114/114 85/120/120 82/113/113
f 82/113/113 85/120/120 80/118/118
f 82/113/113 80/118/118 74/112/112
f 74/112/112 80/118/118 68/111/111
f 68/111/111 80/118/118 78/119/119
f 68/111/111 78/119/119 62/110/110
f 62/110/110 78/119/119 87/116/116
f 62/110/110 87/116/116 93/121/121
f 93/121/121 87/116/116 85/120/120
f 104/109/109 62/110/110 93/121/121
f 89/114/114 98/115/115 95/122/122
f 95/122/122 98/115/115 102/117/117
f 95/122/122 102/117/117 100/123/123
f 87/116/116 78/119/119 80/118/118
f 87/116/116 80/118/118 85/120/120
f 89/114/114 95/122/122 91/124/124
f 91/124/124 95/122/122 100/123/123
f 16/125/125 96/126/126 20/133/133
f 20/133/133 96/126/126 49/134/134
f 20/133/133 49/134/134 26/132/132
f 26/132/132 49/134/134 28/131/131
f 28/131/131 49/134/134 32/130/130
f 32/130/130 49/134/134 82/128/128
f 32/130/130 82/128/128 74/129/129
f 96/126/126 89/127/127 49/134/134
f 49/134/134 89/127/127 82/128/128
f 2/136/136 4/149/149 1/135/135
f 1/135/135 4/149/149 7/147/147
f 1/135/135 7/147/147 18/146/146
f 18/146/146 7/147/147 13/151/151
f 18/146/146 13/151/151 22/155/155
f 22/155/155 13/151/151 15/150/150
f 22/155/155 15/150/150 24/156/156
f 24/156/156 15/150/150 26/140/140
f 24/156/156 26/140/140 30/153/153
f 30/153/153 26/140/140 28/141/141
f 30/153/153 28/141/141 36/158/158
f 36/158/158 28/141/141 32/142/142
f 36/158/158 32/142/142 43/143/143
f 2/136/136 5/137/137 4/149/149
f 4/149/149 5/137/137 9/148/148
f 4/149/149 9/148/148 7/147/147
f 7/147/147 9/148/148 11/152/152
f 7/147/147 11/152/152 13/151/151
f 13/151/151 11/152/152 15/150/150
f 5/137/137 16/138/138 9/148/148
f 9/148/148 16/138/138 20/139/139
f 9/148/148 20/139/139 11/152/152
f 11/152/152 20/139/139 15/150/150
f 20/139/139 26/140/140 15/150/150
f 36/158/158 43/143/143 39/157/157
f 39/157/157 43/143/143 47/144/144
f 39/157/157 47/144/144 41/145/145
f 39/157/157 41/145/145 34/154/154
f 34/154/154 41/145/145 18/146/146
f 34/154/154 18/146/146 22/155/155
f 22/155/155 24/156/156 34/154/154
f 34/154/154 24/156/156 30/153/153
f 34/154/154 30/153/153 39/157/157
f 39/157/157 30/153/153 36/158/158
f 50/159/159 37/160/160 52/167/167
f 52/167/167 37/160/160 45/168/168
f 52/167/167 45/168/168 54/166/166
f 54/166/166 45/168/168 56/165/165
f 56/165/165 45/168/168 47/164/164
f 47/164/164 45/168/168 41/163/163
f 41/163/163 45/168/168 18/162/162
f 18/162/162 45/168/168 1/161/161
f 1/161/161 45/168/168 37/160/160

# 104 vertices
# 168 texture params
# 168 normals
# 204 facets

# 1 groups
